<?xml version="1.0" encoding="UTF-8"?>
<svg width="171mm" height="149mm" version="1.1" viewBox="0 0 171 149" xmlns="http://www.w3.org/2000/svg">
 <g transform="translate(-25 -10)">
  <g transform="matrix(.39 0 0 .39 275 115)" stroke-width="2.6">
   <path d="m-630 115c-3.4-0.93-6.6-3.5-8.1-6.5-2.1-4-2.2-7.7-0.098-12 0.85-1.7 76-132 77-134 0.6-0.96 5-8.5 9.7-17 9.2-16 42-73 72-125 10-17 25-43 33-57 13-23 15-25 16-27 0.95-0.95 2.3-2 3.1-2.4 5-2.7 11-1.7 15 2.4 1.7 1.7 4.8 7.1 61 104 32 56 63 109 67 117s8.8 15 9.3 16c0.48 0.95 4.9 8.6 9.7 17 30 52 60 105 61 106 2.1 4.2 2.1 7.9-0.027 12-1.6 3-4.6 5.4-8.2 6.4-1.3 0.38-20 0.42-209 0.4-167-0.019-208-0.09-209-0.36z" fill="#e8bf29"/>
   <path d="m-630 115c-3.4-0.93-6.6-3.5-8.1-6.5-2.1-4-2.2-7.7-0.098-12 0.85-1.7 76-132 77-134 0.6-0.96 5-8.5 9.7-17 9.2-16 42-73 72-125 10-17 25-43 33-57 13-23 15-25 16-27 0.95-0.95 2.3-2 3.1-2.4 5-2.7 11-1.7 15 2.4 1.7 1.7 4.8 7.1 61 104 32 56 63 109 67 117s8.8 15 9.3 16c0.48 0.95 4.9 8.6 9.7 17 30 52 60 105 61 106 2.1 4.2 2.1 7.9-0.027 12-1.6 3-4.6 5.4-8.2 6.4-1.3 0.38-20 0.42-209 0.4-167-0.019-208-0.09-209-0.36zm391-27c0-0.17-1.2-2.3-2.6-4.8-2.4-4.2-11-20-32-56-4.7-8.1-11-18-13-23-2.6-4.5-5.2-9-5.8-10-1-1.8-1-1.8-1.7-1.4-0.5 0.33-19 5.5-31 8.5-0.85 0.22-2.3 0.36-3.1 0.31l-1.6-0.089-8.9 21c-5.4 13-9.3 21-9.7 22-0.49 0.61-1.5 1.4-2.8 2-1.1 0.54-9.7 4-19 7.7l-17 6.7-16 12c-8.5 6.4-16 12-17 12-0.92 0.46-1.6 0.59-3.2 0.59-1.7 0-2.2-0.11-3.4-0.82-4.1-2.3-5.3-7.8-2.4-11 0.74-0.9 30-23 33-25 0.8-0.53 4.9-2.3 9.6-4.1 4.5-1.7 8.2-3.2 8.3-3.3 4e-3 -0.09-0.56-0.24-1.3-0.33-3.3-0.44-25-3.1-26-3.1-0.54-0.032-6 2.3-17 7.2-8.9 4-17 7.5-18 7.8-1.7 0.71-4.3 0.82-5.9 0.25-2.3-0.82-4.2-3.1-4.8-5.6-0.58-2.8 0.65-5.9 2.9-7.6 0.53-0.38 6.8-3.3 14-6.4 7.1-3.2 13-5.8 13-6 0.12-0.11-1.1-1.6-2.6-3.4-1.6-1.8-5.8-6.5-9.5-11-3.6-4.1-7.9-8.9-9.5-11-1.6-1.8-3.9-4.4-5.2-5.8-1.2-1.4-2.3-2.4-2.5-2.3-0.11 0.11-0.093 1.2 0.046 2.4 0.48 4.2 1.4 11 1.6 12 0.68 3.8 1.1 8.3 0.82 8.6-0.18 0.18-0.38 0.2-0.53 0.042-0.13-0.14-1.8-4.2-3.7-9l-3.5-8.7 0.028-6.1c0.015-3.3 0.13-6.2 0.26-6.3 0.35-0.35 0.75 0.013 1.4 1.2 0.31 0.61 0.61 0.97 0.67 0.8 0.057-0.17-0.27-2.1-0.73-4.2-1.5-6.8-1.6-8-0.68-8 0.21 0 2.7 2.4 5.5 5.4 2.8 2.9 6 6.2 7 7.3 1 1.1 2 1.9 2.1 1.8 0.089-0.089-0.69-2.8-1.7-6.1-2.8-8.7-3.7-12-4.1-13-0.21-0.74-0.62-2-0.92-2.8-0.64-1.7-0.71-3.5-0.15-3.9 0.25-0.2 0.72-0.26 1.3-0.15 1.5 0.31 3.2 0.62 4.9 0.93 0.94 0.17 1.8 0.37 1.9 0.45 0.25 0.15 2.5 0.56 4.4 0.8 0.62 0.078 1.1 0.039 1.1-0.087s-1.9-2.1-4.2-4.5c-3-3-4.2-4.4-4.2-4.8 0.058-0.42 0.58-0.69 2.5-1.3 2.8-0.87 3.1-1 3.2-1.4 0.11-0.32-1.9-1.7-4.4-3-0.92-0.48-2.2-1.3-2.7-1.8-1.3-1.1-1.2-1.8 0.25-2.7 0.53-0.33 1.6-1.1 2.4-1.8 1.7-1.4 3.2-2.5 4.2-3.3 0.74-0.54 5.6-4.3 6.3-4.8 0.2-0.16 0.36-0.41 0.36-0.55 0-0.36-1.2-0.87-2.1-0.88-0.39-5e-3 -1-0.18-1.4-0.39-0.36-0.21-0.95-0.38-1.3-0.39-0.35-5e-3 -1-0.12-1.5-0.26-0.8-0.24-4.6-1.2-6.6-1.6-2.5-0.54-3.2-0.75-4.2-1.2-0.55-0.24-0.99-0.57-0.99-0.74 0-0.17 0.4-0.91 0.88-1.7 3.9-6 6.7-10 6.9-11 0.15-0.4-0.17-0.45-3-0.53-1.8-0.045-3.5 6e-3 -3.7 0.11-0.29 0.11-1.7 0.32-3.1 0.46s-3.1 0.34-3.8 0.43c-1.1 0.14-1.3 0.093-1.4-0.33-0.083-0.27-0.18-2.7-0.23-5.4-0.099-6.4 0.02-6.9 2.5-9 4.2-3.5 13-12 19-16 3-2.6 5.6-4.7 5.7-4.6 0.67 0.22 0.43 1.1-1 3.8-0.84 1.6-2.9 5.5-4.5 8.8-1.7 3.3-3.5 6.9-4.1 8-0.6 1.1-1 2.1-0.94 2.2 0.14 0.14 5.7-1.9 8-2.9 1.3-0.56 2-0.86 4-1.6 3.3-1.3 4.6-1.8 5.5-2.3 0.25-0.13 0.61-0.24 0.8-0.24 0.18 0 2.1-0.71 4.1-1.6 5.4-2.2 6.1-2.1 3.9 0.77-0.62 0.81-1.6 2.2-2.2 3.1-0.59 0.87-1.7 2.4-2.4 3.3-1.3 1.7-4.7 6.5-8.2 11-0.95 1.3-1.7 2.5-1.6 2.6 0.056 0.17 29 0.22 41 0.072 1.3-0.016 1.6 0.068 1.7 0.41 0.09 0.46-0.69 1.1-5.6 4.5-1.6 1.1-4.1 2.9-5.6 3.9-1.5 1-4.2 3-6.1 4.3-1.9 1.3-4.8 3.3-6.3 4.4-1.5 1.1-4 2.8-5.5 3.8-1.5 1-3.3 2.3-4.1 2.9-0.8 0.59-2.6 1.9-3.9 2.9-1.4 1-2.4 2-2.4 2.2 0.041 0.2 0.67 0.6 1.4 0.87 0.73 0.28 1.6 0.61 1.9 0.74 0.29 0.13 1.4 0.55 2.5 0.94s2.2 0.81 2.5 0.93c0.29 0.13 1.1 0.41 1.7 0.63 3.1 1.1 4.5 1.7 4.5 2.2 0 0.63-1.9 1.3-4.6 1.7-1.5 0.19-3.1 0.57-3.7 0.84-1.4 0.72-5.2 3.7-5.2 4 0 0.18 0.86 0.96 1.9 1.7s2.3 1.7 2.7 2.1c3.1 2.6 3.7 2.9 20 14 2.8 1.9 5.9 4 6.9 4.8 1 0.77 2.2 1.5 2.6 1.7 0.84 0.29 1.4 1.2 1.1 1.6-0.24 0.24-2.1-0.084-3.5-0.6-0.33-0.13-0.91-0.23-1.3-0.23-0.37 0-0.9-0.12-1.2-0.27-0.28-0.15-1-0.38-1.6-0.51-1.9-0.39-4.5-1.1-5.4-1.4-0.78-0.28-1.9-0.55-4.2-0.97-0.62-0.12-1.3-0.32-1.5-0.45s-0.86-0.32-1.4-0.42c-0.59-0.1-2.2-0.5-3.6-0.89-1.4-0.39-3-0.81-3.6-0.94-0.58-0.13-1.5-0.34-2.1-0.47-0.58-0.13-1.5-0.37-2-0.54-1.3-0.43-7.1-1.9-8.4-2.1-0.85-0.16-1.1-0.12-1.1 0.13 0 0.19 0.79 1.7 1.8 3.3 3.9 6.5 6.7 12 6.7 12 0 0.4-0.14 0.47-0.73 0.35-0.74-0.15-4.6-2.3-6.5-3.6-1.3-0.87-4.1-2.2-4.3-2-0.17 0.17 1.1 3.5 3.2 8.8 0.97 2.3 2.3 5.6 3 7.3 0.69 1.7 1.9 4.5 2.7 6.4 0.76 1.8 2.3 5.5 3.4 8.1 1.1 2.6 2.1 4.9 2.2 5 0.12 0.14 1.5-0.36 3.3-1.2 2.6-1.2 3.4-1.4 5-1.5 1.2-0.061 7.6 0.6 18 1.9 13 1.6 17 1.9 17 1.7 0.62-0.69 15-35 15-36-0.13-0.12-6-4.3-13-9.3-15-11-14-9.8-15-11-0.32-0.47-3.3-7.6-6.6-16l-6.1-15v-2.1c0-1.9 0.082-2.3 0.8-3.4 0.5-0.8 1.3-1.6 2.1-2.1 1.2-0.73 1.5-0.8 3.6-0.8 2.1 0 2.4 0.074 3.4 0.73 0.61 0.4 1.4 1.2 1.9 1.8 0.41 0.57 3.1 6.9 6 14 2.9 7.2 5.4 13 5.7 14 0.32 0.64 3.2 2.9 12 8.8 6.2 4.4 12 8.2 12 8.6s6.2 2.7 12 5.3l11 4.7 12-3.1c14-3.9 13-3.4 14-4.4 0.46-1.3 0.36-1.7-1.1-4.1-0.74-1.3-1.5-2.6-1.6-2.9-0.27-0.7-13-22-14-25-0.55-0.87-7.1-12-15-25-13-23-22-38-45-78-5.7-9.9-15-25-20-35-5.3-9.2-12-21-16-27-3.4-5.9-6.3-11-6.4-11s-3 4.8-6.4 11c-3.4 5.9-11 19-17 29-5.9 10-18 31-27 47s-16 28-16 28c0 0.15 5.8 0.24 15 0.24h15l1.9 1.9v10c0 9.7-0.02 10-0.51 10-0.28 0.15-0.81 0.27-1.2 0.27-0.37 0-0.96 0.14-1.3 0.3-0.58 0.26-0.84 0.18-2.1-0.67l-1.5-0.97-0.14-14-28-0.13-1.1 1.9c-0.61 1.1-5.1 8.8-9.9 17-4.9 8.4-9 16-9.2 16-0.22 0.44-1.9 3.4-3.8 6.6l-3.4 5.8 0.13 85h56l0.13-52 0.59-0.37c0.33-0.21 1.3-0.45 2.1-0.55l1.5-0.18 0.42 1.7c0.23 0.92 0.78 3.1 1.2 4.9l0.8 3.3v48l-1.9 1.9h-65l-1.9-1.9v-39c0-23-0.097-39-0.24-39-0.13 0.081-1.3 2-2.6 4.2-1.3 2.2-2.5 4.3-2.8 4.7-0.25 0.36-3.6 6.1-7.4 13-3.8 6.6-9.2 16-12 21-5.3 9.1-19 33-36 63-5.7 10-12 20-13 23s-2.6 4.7-2.6 4.8c0 0.23 44 0.31 182 0.31s182-0.074 182-0.31zm-203-58c-0.43-0.34-0.75-0.98-0.95-1.9-0.16-0.76-0.6-1.8-0.97-2.4-0.86-1.3-0.7-1.9 0.83-3.3 0.77-0.68 1.4-1.6 1.8-2.5 0.76-1.9 1.6-3.1 2.5-3.7 1.1-0.69 1.4-0.62 1.8 0.4 0.21 0.49 0.68 1.3 1 1.7l0.67 0.8-0.21 4.3c-0.19 3.8-0.27 4.3-0.73 4.6-0.28 0.17-1.6 0.8-2.8 1.4l-2.3 1.1zm-49-13c-0.18-1.1-1.2-7.1-2.2-13-1.1-6.4-1.8-11-1.7-12 0.35-0.37 0.84 0.16 3.2 3.4 1.2 1.7 2.3 2.9 2.3 2.8 0.25-0.29 5.9-41 5.7-42-0.11-0.11-23 12-26 14-0.32 0.19-0.54 0.19-0.75-0.016-0.21-0.21 2.2-9 8.7-32 5-18 9.1-32 9.3-32 0.24-0.45 0.86-0.48 9.4-0.48 5.8 0 9.2 0.096 9.3 0.27 0.09 0.15-4.7 11-11 24-5.9 13-11 24-11 24 0.046 0.13 6.6-3.4 15-7.8 7.9-4.4 14-8 15-8 0.094-1e-3 0.23 0.15 0.3 0.33 0.07 0.18-3.5 14-8 30-4.5 16-8 30-7.9 30 0.11 0.044 1.7-0.88 3.5-2.1 1.8-1.2 3.4-2.1 3.6-2.1s0.28 0.16 0.28 0.36c0 0.57-15 23-16 23-0.31 0.062-0.48-0.36-0.73-1.9zm106 0.26c-2-1.8-2.4-3.3-1.5-5.2 0.65-1.3 3-2.6 4.2-2.3 0.94 0.24 2.2 1.6 3.1 3.4 0.91 1.7 0.79 2.7-0.43 3.3-0.45 0.24-1.3 0.77-1.9 1.2-0.6 0.4-1.3 0.72-1.7 0.73-0.31 3e-3 -1.1-0.5-1.8-1.1zm8.1-4.6c-1.1-0.54-1.3-1.1-1.2-3 0.12-1.4 0.17-1.5 1.4-2.3 0.69-0.45 1.4-0.82 1.6-0.82 0.5 0 1.3 0.84 1.3 1.4 0 0.23 0.36 0.78 0.79 1.2s0.79 1 0.79 1.3c0 0.48-1.1 2-1.7 2.5-0.47 0.34-2.1 0.21-3-0.24zm-23-8c-2.4-2.2-2.8-2.7-2.8-3.4 0-1 0.9-2.2 1.7-2.2 0.34 0 1.1 0.19 1.6 0.42 0.71 0.3 1.4 0.37 2.3 0.25 1.3-0.17 1.3-0.17 2.6 1.2 0.72 0.77 1.3 1.5 1.3 1.7 3e-3 0.15-0.53 0.8-1.2 1.5-0.72 0.71-1.3 1.6-1.5 2.2-0.18 0.68-0.42 1-0.74 1-0.26 0-1.7-1.2-3.3-2.6zm66-23c-9.1-1.3-14-12-8.8-20 2.4-3.7 6.2-5.8 11-5.7 3.8 0.012 6.4 1 9 3.7 4.1 4.1 5 9.7 2.4 15-2.4 4.9-7.7 7.5-13 6.8zm-68-14c-1.4-0.46-2.4-2.2-2.4-4.1 0-1.6 0.59-2.4 2.2-2.8 0.72-0.2 1.1-0.54 1.6-1.6 0.94-1.7 1.4-2.1 2.3-2.1 1.3 0 1.6 0.77 1.6 4 0 2-0.12 3.1-0.4 3.6-0.66 1.3-4 3.3-4.9 3zm35-37c-0.86-0.43-0.93-0.56-1-1.9-0.068-1.2 0.037-1.6 0.7-2.5 1.9-2.8 3.3-3.3 4.4-1.6 1.2 1.7 0.98 4.9-0.35 5.9-0.84 0.66-2.5 0.68-3.8 0.059zm-36-18c-0.78-0.47-0.86-0.64-0.86-1.8 0-1.1 0.17-1.5 1.2-2.9 1.4-1.9 2.2-2.4 3.2-1.9 0.81 0.37 1.7 2.2 1.7 3.5 7e-3 1.4-0.48 2.9-1.1 3.3-0.84 0.59-3 0.52-4.1-0.12zm28-3.4c-0.35-0.23-2.2-4.2-2.2-4.7 0-0.52 1.7-2.1 2.9-2.7 1.3-0.67 2.1-0.67 3.5 0.015 1.3 0.66 2.5 2.9 2.2 4.2-0.42 1.9-4.9 4.2-6.4 3.3z" fill="#030201"/>
  </g>
 </g>
</svg>
