<?xml version="1.0" encoding="UTF-8"?>
<svg width="23" height="15" version="1.1" viewBox="0 0 6.0854 3.9688" xmlns="http://www.w3.org/2000/svg">
 <g transform="translate(68.055 -121.15)" fill="#fff">
  <path d="m-67.658 121.15h5.2917c0.21987 0 0.39688 0.17701 0.39688 0.39688s-0.17701 0.39687-0.39688 0.39687h-5.2917c-0.21987 0-0.39687-0.177-0.39687-0.39687s0.17701-0.39688 0.39687-0.39688z" style="paint-order:markers fill stroke"/>
  <path d="m-67.658 122.73h5.2917c0.21987 0 0.39688 0.177 0.39688 0.39687s-0.17701 0.39688-0.39688 0.39688h-5.2917c-0.21987 0-0.39687-0.17701-0.39687-0.39688s0.17701-0.39687 0.39687-0.39687z" style="paint-order:markers fill stroke"/>
  <path d="m-67.658 124.32h5.2917c0.21987 0 0.39688 0.17701 0.39688 0.39687 0 0.21987-0.17701 0.39688-0.39688 0.39688h-5.2917c-0.21987 0-0.39687-0.17701-0.39687-0.39688 0-0.21986 0.17701-0.39687 0.39687-0.39687z" style="paint-order:markers fill stroke"/>
 </g>
</svg>
